:SAMPLES-PER-SECOND 24
:FULLY-SPECIFIED
:DEGREES
325
root  1.09164 37.1596 30.7807 176.158 -53.1774 172.535
RightUpLeg  -7.23636 -12.1155 -21.9016
RightLeg  39.0596 6.35099 5.23978
RightFoot  -13.6841 0.145433 11.6334
RightToes  -1.74623e-010 0 -2.59999e-017
Spine  5.83427 -2.06747 -9.62506
Spine1  16.705 -4.5998 3.435
HEad  -15.1701 -28.3003 10.2818
LeftShoulder1  1.60474 -2.85507 -18.6844
LeftArm  22.3468 -11.9658 -37.9085
LeftForeArm  79.1617 -78.67 -101.824
LeftHand  0.0432385 10.049 2.33326
RightShoulder  2.7282 4.8419 26.6923
RightArm  -16.804 -10.0781 25.0776
RightForeArm  76.1815 79.3395 88.4031
RightHand  -0.0893379 -8.52231 1.49716
LeftUpLeg  4.56691 6.18397 9.5981
LeftLeg  36.7451 -8.54915 -6.42109
LeftFoot  -21.0299 -1.05286 -13.8493
LeftToes  -6.27559e-011 -2.10356e-011 8.24929e-012
326
root  1.27809 36.3997 31.0819 176.875 -52.2959 172.49
RightUpLeg  -10.6709 -13.2376 -22.1662
RightLeg  42.8371 7.02766 6.64785
RightFoot  -16.1719 0.284602 9.22792
RightToes  -1.74623e-010 0 -2.59999e-017
Spine  5.17422 -1.59816 -9.71089
Spine1  18.24 -4.19819 3.08391
HEad  -19.0004 -28.3933 11.5231
LeftShoulder1  1.56287 -2.53365 -19.3785
LeftArm  18.8284 -14.8345 -38.9312
LeftForeArm  77.7067 -79.1198 -94.5846
LeftHand  0.231371 11.136 5.684
RightShoulder  3.02921 5.17473 28.9832
RightArm  -22.3995 -5.07971 23.9622
RightForeArm  77.7365 79.6687 78.4481
RightHand  0.364736 -11.0985 -8.28221
LeftUpLeg  2.9622 7.9747 9.43268
LeftLeg  38.7616 -7.36106 -5.91012
LeftFoot  -25.9272 -1.48834 -12.7659
LeftToes  -6.27559e-011 -2.10356e-011 8.24929e-012
327
root  1.33896 36.9071 31.1013 177.796 -51.7447 172.555
RightUpLeg  -10.8241 -13.6163 -21.7283
RightLeg  40.3399 7.70752 6.71119
RightFoot  -13.5222 0.0890632 9.60931
RightToes  -1.74623e-010 0 -2.59999e-017
Spine  4.56813 -1.46829 -10.8205
Spine1  18.3649 -4.51863 4.45484
HEad  -21.2052 -28.1139 11.539
LeftShoulder1  1.66625 -2.76279 -20.1353
LeftArm  14.9597 -8.15719 -42.8097
LeftForeArm  89.2083 -79.1068 -101.693
LeftHand  0.382115 10.7122 9.23455
RightShoulder  3.08726 5.26905 29.2721
RightArm  -25.9832 -7.43848 29.5198
RightForeArm  93.5409 79.6067 97.3733
RightHand  0.911082 -11.9692 -16.6461
LeftUpLeg  2.97798 9.20907 9.44895
LeftLeg  36.1911 -8.02444 -5.83236
LeftFoot  -22.9352 -1.17146 -12.852
LeftToes  -6.27559e-011 -2.10356e-011 8.24929e-012
328
root  1.25199 38.3551 30.8824 178.557 -50.7985 173.521
RightUpLeg  -8.82018 -14.8882 -20.3032
RightLeg  32.29 9.75877 6.35379
RightFoot  -5.78712 -0.54494 10.5082
RightToes  -1.74623e-010 0 -2.59999e-017
Spine  3.42351 -2.14349 -11.3973
Spine1  16.5476 -5.16031 5.73618
HEad  -18.6493 -26.9384 10.6439
LeftShoulder1  1.73413 -2.84625 -20.9088
LeftArm  13.5577 3.05781 -45.113
LeftForeArm  100.862 -78.0019 -116.236
LeftHand  0.355019 9.5072 10.9086
RightShoulder  3.11446 5.29813 29.468
RightArm  -23.9626 -13.3064 35.1355
RightForeArm  109.071 77.3265 122.62
RightHand  0.785933 -10.9486 -16.8386
LeftUpLeg  4.89049 9.22558 9.55537
LeftLeg  28.2097 -7.62083 -4.03521
LeftFoot  -14.3928 -0.303407 -15.2032
LeftToes  -6.27559e-011 -2.10356e-011 8.24929e-012
329
root  1.16128 39.6436 30.7149 178.738 -46.9713 176.174
RightUpLeg  -10.9828 -16.2714 -17.1936
RightLeg  27.7047 13.1077 7.15955
RightFoot  5.00435 -1.7044 12.0668
RightToes  -1.74623e-010 0 -2.59999e-017
Spine  1.59455 -2.30568 -8.89974
Spine1  13.9435 -4.37683 4.722
HEad  -13.8451 -25.1533 9.26673
LeftShoulder1  1.81419 -3.04017 -21.3502
LeftArm  13.998 12.3141 -45.7
LeftForeArm  105.437 -77.4645 -120.979
LeftHand  0.168662 7.78111 9.54669
RightShoulder  3.11332 5.23801 29.7045
RightArm  -17.9764 -17.9483 36.1046
RightForeArm  122.528 74.8083 135.873
RightHand  0.238738 -9.06953 -8.64576
LeftUpLeg  6.18885 8.65446 9.47556
LeftLeg  20.5901 -1.18766 -0.21973
LeftFoot  -5.54775 0.790164 -14.8914
LeftToes  -6.27559e-011 -2.10356e-011 8.24929e-012
330
root  1.17688 40.2082 30.6967 178.467 -40.8981 178.578
RightUpLeg  -16.2892 -16.9284 -13.8316
RightLeg  28.9672 15.5976 8.96113
RightFoot  10.202 -2.69809 14.5299
RightToes  -1.74623e-010 0 -2.59999e-017
Spine  0.306158 -1.37705 -5.89371
Spine1  13.1206 -2.77637 3.40337
HEad  -11.6328 -22.4719 7.60233
LeftShoulder1  2.04205 -3.80395 -21.5916
LeftArm  13.5356 17.0753 -47.0395
LeftForeArm  107.133 -78.051 -117.984
LeftHand  0.0014334 5.69763 9.26892
RightShoulder  2.8219 4.79563 28.0449
RightArm  -13.0405 -18.4336 35.5609
RightForeArm  138.444 72.3626 144.799
RightHand  -0.0347236 -5.14419 -0.214088
LeftUpLeg  6.57598 7.14979 8.65632
LeftLeg  19.2588 2.98412 1.32397
LeftFoot  -2.12854 1.00846 -12.2543
LeftToes  -6.27559e-011 -2.10356e-011 8.24929e-012
331
root  1.28879 40.1783 30.7675 177.657 -35.3806 179.627
RightUpLeg  -20.3622 -17.1193 -11.831
RightLeg  30.7383 16.5589 10.1633
RightFoot  9.00914 -2.49508 14.1583
RightToes  -1.74623e-010 0 -2.59999e-017
Spine  0.651539 -0.934067 -5.11302
Spine1  14.2194 -2.35237 3.60133
HEad  -12.6997 -18.349 7.05995
LeftShoulder1  2.14547 -4.296 -21.1269
LeftArm  12.4006 17.6997 -49.1713
LeftForeArm  98.8061 -78.8862 -108.686
LeftHand  -0.072303 4.80633 11.3753
RightShoulder  2.56642 4.41863 26.3936
RightArm  -10.794 -13.4332 34.4819
RightForeArm  143.37 70.1328 149.563
RightHand  -0.0164082 -4.73588 2.46765
LeftUpLeg  7.81585 5.90285 7.48782
LeftLeg  21.6569 -1.53404 -0.356103
LeftFoot  -4.06077 0.757961 -11.5245
LeftToes  -6.27559e-011 -2.10356e-011 8.24929e-012
332
root  1.41633 39.6786 30.8989 176.825 -30.4486 -179.531
RightUpLeg  -23.8061 -16.7892 -10.1066
RightLeg  28.9459 15.4999 8.88103
RightFoot  8.14052 -1.91832 11.4706
RightToes  -1.74623e-010 0 -2.59999e-017
Spine  2.03117 -1.26731 -4.98418
Spine1  14.4733 -2.7978 4.16333
HEad  -13.8683 -13.5273 7.30959
LeftShoulder1  2.07012 -4.19932 -20.4518
LeftArm  12.2324 15.5992 -49.5853
LeftForeArm  83.3618 -79.3356 -95.2025
LeftHand  -0.145104 4.10624 12.073
RightShoulder  2.56787 4.46025 26.2303
RightArm  -10.3194 -5.34307 32.9438
RightForeArm  139.706 69.6401 149.825
RightHand  -0.0356967 -7.09925 0.0818459
LeftUpLeg  10.2644 6.25026 7.30616
LeftLeg  22.1961 -4.70387 -1.76174
LeftFoot  -8.86914 0.297218 -11.3246
LeftToes  -6.27559e-011 -2.10356e-011 8.24929e-012
333
root  1.53766 38.7344 30.9905 176.842 -25.0267 -179.082
RightUpLeg  -27.5057 -16.4859 -7.88944
RightLeg  23.1923 12.7941 5.74163
RightFoot  8.11371 -1.65365 9.95022
RightToes  -1.74623e-010 0 -2.59999e-017
Spine  3.12795 -1.27267 -5.44698
Spine1  13.5965 -2.95454 4.89989
HEad  -14.1814 -9.18358 6.36059
LeftShoulder1  2.22145 -4.30091 -22.1441
LeftArm  12.6928 10.0423 -46.7841
LeftForeArm  61.7041 -78.9233 -74.006
LeftHand  -0.294002 2.67074 12.2632
RightShoulder  2.62845 4.59741 26.4395
RightArm  -11.7452 2.54826 32.4081
RightForeArm  140.305 70.2455 148.945
RightHand  0.0282209 -7.48872 -3.57038
LeftUpLeg  12.4379 9.82643 7.85238
LeftLeg  21.5151 -2.66864 -0.818955
LeftFoot  -16.331 -0.373386 -10.7844
LeftToes  -6.27559e-011 -2.10356e-011 8.24929e-012
334
root  1.72258 37.6078 30.967 176.989 -19.7958 -179.814
RightUpLeg  -30.0931 -16.6935 -6.08099
RightLeg  15.085 10.2397 3.45546
RightFoot  6.55437 -1.3831 9.04634
RightToes  -1.74623e-010 0 -2.59999e-017
Spine  3.8897 -0.973842 -7.26905
Spine1  13.8777 -2.89643 5.45569
HEad  -15.1707 -5.43429 5.29823
LeftShoulder1  2.51866 -4.50379 -25.2991
LeftArm  13.1129 -0.123051 -43.337
LeftForeArm  33.6186 -75.7439 -48.7251
LeftHand  -0.373469 2.44393 14.5877
RightShoulder  2.87339 4.98966 27.8638
RightArm  -14.8654 8.9707 32.6412
RightForeArm  144.337 70.5965 148.937
RightHand  0.079495 -7.08082 -7.51207
LeftUpLeg  13.0967 14.8178 8.11717
LeftLeg  24.5337 -1.59931 -0.461275
LeftFoot  -24.5994 -1.14215 -11.0364
LeftToes  -6.27559e-011 -2.10356e-011 8.24929e-012
